<svg xmlns="http://www.w3.org/2000/svg" viewBox="0 0 32 32">
  <rect width="32" height="32" rx="5" fill="#0a0908"/>
  <circle cx="16" cy="16" r="13.5" fill="none" stroke="#e6a84a" stroke-width="0.5" stroke-opacity="0.35"/>
  <circle cx="16" cy="16" r="12" fill="none" stroke="#e6a84a" stroke-width="1.8"/>
  <circle cx="16" cy="16" r="10.4" fill="#050403"/>
  <path d="M11.6,12.3 L20.1,12.3 Q22.2,12.3 22.7,14.8 Q23,16.6 22.2,18.4 Q21.6,19.6 20.4,19.6 Q19.2,19.6 18.6,18.7 L17.7,17.5 L14,17.5 L13.1,18.7 Q12.5,19.6 11.3,19.6 Q10.1,19.6 9.5,18.4 Q8.7,16.6 9,14.8 Q9.5,12.3 11.6,12.3 Z"
        fill="none" stroke="#f0b96a" stroke-width="0.9" stroke-linejoin="round"/>
  <line x1="11.6" y1="14.5" x2="11.6" y2="16.6" stroke="#f0b96a" stroke-width="0.9" stroke-linecap="round"/>
  <line x1="10.6" y1="15.5" x2="12.6" y2="15.5" stroke="#f0b96a" stroke-width="0.9" stroke-linecap="round"/>
  <circle cx="20.0" cy="14.8" r="0.75" fill="#f0b96a"/>
  <circle cx="21.2" cy="15.7" r="0.75" fill="#f0b96a"/>
  <circle cx="20.0" cy="16.6" r="0.75" fill="#f0b96a"/>
  <circle cx="18.8" cy="15.7" r="0.75" fill="#f0b96a"/>
</svg>
